<svg xmlns="http://www.w3.org/2000/svg" version="1.0" width="64.000000pt" height="64.000000pt" viewBox="0 0 64.000000 64.000000" preserveAspectRatio="xMidYMid meet">

<g transform="translate(0.000000,64.000000) scale(0.100000,-0.100000)" fill="#ff4450" stroke="none">
<path d="M187 606 c-55 -21 -103 -61 -134 -114 -24 -40 -28 -58 -28 -122 0 -64 4 -82 28 -123 68 -115 209 -158 327 -99 l41 20 8 -21 c12 -32 117 -127 139 -127 23 0 52 30 52 54 0 21 -96 125 -127 137 l-21 8 20 41 c58 117 16 260 -97 326 -56 32 -150 42 -208 20z m178 -30 c61 -28 87 -56 116 -120 16 -38 20 -61 16 -102 -12 -120 -91 -199 -212 -211 -57 -6 -129 19 -174 60 -36 33 -71 115 -71 167 0 49 29 122 63 159 33 36 115 71 167 71 26 0 66 -10 95 -24z m105 -385 c0 -12 -20 -25 -27 -18 -7 7 6 27 18 27 5 0 9 -4 9 -9z m84 -60 c49 -50 55 -74 20 -88 -11 -4 -32 10 -67 45 -50 50 -51 51 -32 72 10 11 21 20 24 20 4 0 29 -22 55 -49z" fill="#ff4450"/>
<path d="M195 565 c-74 -26 -135 -114 -135 -195 0 -110 100 -210 210 -210 110 0 210 100 210 210 0 145 -145 244 -285 195z m143 -20 c49 -21 81 -52 103 -100 45 -96 -1 -207 -103 -250 -47 -19 -89 -19 -136 0 -157 66 -161 275 -7 346 49 23 94 24 143 4z" fill="#ff4450"/>
<path d="M147 484 c-4 -4 -7 -40 -7 -81 0 -45 -4 -73 -11 -73 -6 0 -9 -12 -7 -27 l3 -28 145 0 145 0 3 28 c2 15 -1 27 -7 27 -6 0 -11 33 -13 78 l-3 77 -121 3 c-66 1 -123 -1 -127 -4z m233 -84 l0 -70 -110 0 -110 0 0 70 0 70 110 0 110 0 0 -70z m20 -100 c0 -6 -50 -10 -130 -10 -80 0 -130 4 -130 10 0 6 50 10 130 10 80 0 130 -4 130 -10z" fill="#ff4450"/>
<path d="M300 440 c0 -5 6 -10 12 -10 7 0 3 -10 -9 -22 -22 -21 -23 -21 -43 -3 -20 18 -21 18 -47 -8 -30 -30 -24 -50 7 -22 19 17 21 17 40 0 20 -18 21 -18 50 10 17 16 30 23 30 17 0 -7 5 -12 10 -12 6 0 10 14 10 30 0 27 -3 30 -30 30 -16 0 -30 -4 -30 -10z" fill="#ff4450"/>
</g>
</svg>