<svg xmlns="http://www.w3.org/2000/svg" version="1.0" width="64.000000pt" height="64.000000pt" viewBox="0 0 64.000000 64.000000" preserveAspectRatio="xMidYMid meet">

<g transform="translate(0.000000,64.000000) scale(0.100000,-0.100000)" fill="#f9c043" stroke="none">
<path d="M258 597 l-48 -22 0 -121 c0 -95 -3 -123 -14 -127 -9 -4 -16 3 -20 19 -4 15 -14 24 -26 24 -15 0 -23 -11 -32 -45 -11 -40 -17 -46 -65 -67 -50 -22 -53 -25 -53 -60 0 -21 4 -38 9 -38 5 0 77 -33 161 -74 l152 -73 149 73 c83 41 155 74 160 74 5 0 9 17 9 38 0 35 -3 38 -53 60 -48 21 -54 27 -65 67 -9 34 -17 45 -31 45 -11 0 -23 -9 -26 -20 -3 -11 -13 -20 -21 -20 -11 0 -14 23 -14 123 l0 122 -53 23 c-61 26 -59 26 -119 -1z m104 -13 c31 -16 31 -17 12 -31 -31 -23 -60 -26 -93 -9 -17 9 -31 19 -31 21 0 7 54 34 68 35 7 0 27 -7 44 -16z m-52 -234 l0 -160 -40 20 -40 20 0 160 0 160 40 -20 40 -20 0 -160z m100 40 l0 -160 -40 -20 -40 -20 0 160 0 160 38 19 c20 11 38 20 40 21 1 0 2 -72 2 -160z m-246 -62 c3 -13 6 -30 6 -38 0 -13 -1 -13 -10 0 -9 13 -11 13 -20 0 -9 -13 -10 -13 -10 0 0 25 12 60 20 60 4 0 10 -10 14 -22z m340 0 c3 -13 6 -30 6 -38 0 -13 -1 -13 -10 0 -9 13 -11 13 -20 0 -9 -13 -10 -13 -10 0 0 25 12 60 20 60 4 0 10 -10 14 -22z m-238 -139 l54 -26 54 26 55 26 1 50 c1 46 2 48 15 30 8 -11 19 -25 25 -32 5 -7 10 -19 10 -28 0 -8 5 -15 10 -15 6 0 10 9 10 20 0 13 7 20 20 20 29 0 84 -30 74 -39 -5 -5 -69 -37 -142 -71 l-133 -64 -132 64 c-73 36 -136 68 -141 72 -9 7 56 38 80 38 8 0 14 -9 14 -20 0 -11 5 -20 10 -20 6 0 10 9 10 20 0 11 4 20 8 20 5 0 15 12 23 28 14 27 14 27 17 -23 4 -50 4 -50 58 -76z m-203 -15 c-7 -18 -43 0 -43 21 0 12 5 12 24 4 14 -7 22 -17 19 -25z m541 -1 c-14 -10 -19 -10 -25 -1 -5 8 0 17 14 25 28 15 38 -4 11 -24z m-489 -23 c-8 -13 -35 0 -35 16 0 12 4 12 20 4 11 -6 18 -15 15 -20z m439 -3 c-23 -13 -40 4 -19 20 15 10 20 10 26 1 5 -8 2 -16 -7 -21z m-395 -6 c8 -5 9 -11 3 -15 -14 -8 -43 4 -36 15 7 11 15 11 33 0z m355 0 c7 -11 -22 -23 -36 -15 -6 4 -5 10 3 15 18 11 26 11 33 0z m-304 -37 c0 -8 -6 -11 -15 -8 -8 4 -15 12 -15 20 0 8 6 11 15 8 8 -4 15 -12 15 -20z m244 -1 c-13 -10 -20 -10 -23 -2 -4 14 19 30 33 22 5 -3 1 -12 -10 -20z m-191 -24 c-14 -14 -43 0 -36 17 4 10 10 11 25 3 13 -7 17 -14 11 -20z m151 12 c7 -11 -22 -23 -36 -15 -6 4 -5 10 3 15 18 11 26 11 33 0z m-106 -35 c3 -15 1 -16 -17 -6 -12 6 -19 16 -15 21 9 15 28 5 32 -15z m57 15 c3 -6 -4 -15 -15 -21 -16 -8 -20 -8 -20 3 0 25 23 36 35 18z" fill="#f9c043"/>
<path d="M240 502 c0 -8 43 -32 55 -32 15 0 1 19 -20 28 -31 14 -35 15 -35 4z" fill="#f9c043"/>
<path d="M240 462 c0 -8 43 -32 55 -32 15 0 1 19 -20 28 -31 14 -35 15 -35 4z" fill="#f9c043"/>
<path d="M240 422 c0 -8 43 -32 55 -32 15 0 1 19 -20 28 -31 14 -35 15 -35 4z" fill="#f9c043"/>
<path d="M240 382 c0 -8 43 -32 55 -32 15 0 1 19 -20 28 -31 14 -35 15 -35 4z" fill="#f9c043"/>
<path d="M240 342 c0 -8 43 -32 55 -32 15 0 1 19 -20 28 -31 14 -35 15 -35 4z" fill="#f9c043"/>
<path d="M240 302 c0 -8 43 -32 55 -32 15 0 1 19 -20 28 -31 14 -35 15 -35 4z" fill="#f9c043"/>
<path d="M240 262 c0 -8 43 -32 55 -32 15 0 1 19 -20 28 -31 14 -35 15 -35 4z" fill="#f9c043"/>
<path d="M363 498 c-20 -10 -32 -28 -18 -28 12 0 55 24 55 32 0 10 -9 9 -37 -4z" fill="#f9c043"/>
<path d="M363 458 c-20 -10 -32 -28 -18 -28 12 0 55 24 55 32 0 10 -9 9 -37 -4z" fill="#f9c043"/>
<path d="M363 418 c-20 -10 -32 -28 -18 -28 12 0 55 24 55 32 0 10 -9 9 -37 -4z" fill="#f9c043"/>
<path d="M363 378 c-20 -10 -32 -28 -18 -28 12 0 55 24 55 32 0 10 -9 9 -37 -4z" fill="#f9c043"/>
<path d="M363 338 c-20 -10 -32 -28 -18 -28 12 0 55 24 55 32 0 10 -9 9 -37 -4z" fill="#f9c043"/>
<path d="M363 298 c-20 -10 -32 -28 -18 -28 12 0 55 24 55 32 0 10 -9 9 -37 -4z" fill="#f9c043"/>
<path d="M363 258 c-20 -10 -32 -28 -18 -28 12 0 55 24 55 32 0 10 -9 9 -37 -4z" fill="#f9c043"/>
</g>
</svg>