<svg xmlns="http://www.w3.org/2000/svg" version="1.0" width="64.000000pt" height="64.000000pt" viewBox="0 0 64.000000 64.000000" preserveAspectRatio="xMidYMid meet">

<g transform="translate(0.000000,64.000000) scale(0.100000,-0.100000)" fill="#e4730f" stroke="none">
<path d="M22 604 c-21 -15 -22 -21 -22 -229 0 -210 0 -214 22 -229 12 -9 35 -16 50 -16 27 0 28 -2 28 -50 0 -27 3 -50 8 -50 4 0 14 21 22 48 l15 47 75 0 75 0 15 -47 c8 -27 18 -48 23 -48 4 0 7 25 7 55 l0 55 45 0 45 0 0 -45 c0 -49 5 -53 38 -29 22 15 22 19 22 229 0 210 0 214 -22 229 -18 13 -57 16 -215 16 l-193 0 0 34 c0 42 -10 50 -38 30z m18 -41 c0 -20 -3 -24 -11 -16 -7 7 -9 19 -6 27 10 24 17 19 17 -11z m403 -52 c32 -12 36 -41 7 -48 -19 -5 -20 -14 -20 -154 l0 -149 -51 0 c-46 0 -51 2 -46 20 3 11 1 20 -4 20 -5 0 -20 23 -35 51 -20 41 -24 59 -19 91 5 28 3 44 -8 56 -9 9 -17 31 -19 47 -2 24 -8 30 -28 30 -20 0 -26 -6 -28 -30 -2 -16 -11 -38 -19 -47 -11 -12 -13 -27 -9 -53 5 -27 1 -49 -18 -90 -14 -30 -29 -55 -34 -55 -5 0 -8 -10 -8 -22 1 -26 -20 -33 -57 -19 l-27 11 0 174 0 174 198 1 c115 1 210 -2 225 -8z m27 -245 c0 -106 -4 -177 -10 -181 -7 -4 -10 57 -10 174 0 114 4 181 10 181 6 0 10 -65 10 -174z m-215 114 c4 -12 1 -27 -5 -35 -27 -33 -78 -5 -65 35 9 28 61 28 70 0z m-95 -176 c-22 -49 -40 -83 -40 -76 0 20 73 187 77 175 2 -5 -15 -50 -37 -99z m155 -62 c3 -15 2 -20 -1 -12 -4 8 -22 48 -40 88 -19 41 -34 79 -33 85 1 17 68 -128 74 -161z m-76 107 c16 -46 14 -49 -19 -49 -16 0 -30 4 -30 9 0 18 22 71 30 71 4 0 13 -14 19 -31z m36 -84 c0 -11 -79 -19 -102 -11 -8 3 -11 11 -8 16 8 14 110 9 110 -5z" fill="#e4730f"/>
<path d="M194 375 c-4 -9 -2 -21 4 -27 16 -16 47 -5 47 17 0 26 -42 34 -51 10z" fill="#e4730f"/>
<path d="M550 613 c-37 -13 -40 -32 -40 -261 0 -221 5 -262 34 -262 8 0 16 -9 19 -19 3 -14 11 -18 26 -14 47 12 51 32 51 279 0 206 -2 234 -17 252 -20 23 -50 33 -73 25z m0 -38 c-10 -12 -10 -18 0 -30 9 -11 9 -15 1 -15 -15 0 -25 26 -17 45 3 8 11 15 17 15 8 0 8 -4 -1 -15z m58 3 c23 -23 8 -78 -21 -78 -5 0 -1 7 7 16 9 8 16 22 16 29 0 7 -7 21 -16 29 -8 9 -12 16 -7 16 5 0 14 -5 21 -12z m-21 -40 c-3 -8 -6 -5 -6 6 -1 11 2 17 5 13 3 -3 4 -12 1 -19z m-27 -229 c0 -156 -3 -200 -12 -197 -10 4 -14 55 -16 201 -2 171 0 197 13 197 13 0 15 -28 15 -201z m49 -215 c-6 -8 -15 -14 -20 -14 -5 0 -9 90 -9 199 0 182 2 200 18 203 16 3 17 -12 20 -186 2 -130 -1 -193 -9 -202z" fill="#e4730f"/>
</g>
</svg>