<svg xmlns="http://www.w3.org/2000/svg" version="1.0" width="64.000000pt" height="64.000000pt" viewBox="0 0 64.000000 64.000000" preserveAspectRatio="xMidYMid meet">

<g transform="translate(0.000000,64.000000) scale(0.100000,-0.100000)" fill="#01c99c" stroke="none">
<path d="M12 628 c-8 -8 -12 -53 -12 -134 0 -98 3 -126 16 -138 8 -9 20 -16 25 -16 5 0 9 -16 9 -35 0 -55 26 -57 69 -7 l36 42 142 0 c115 0 144 3 157 16 13 12 16 39 16 130 0 64 -5 124 -10 135 -10 18 -23 19 -223 19 -152 0 -216 -3 -225 -12z m432 -24 c11 -30 7 -219 -6 -232 -8 -8 -57 -12 -154 -12 l-143 0 -27 -35 c-33 -44 -44 -44 -44 -2 0 24 -6 35 -22 42 -22 9 -23 17 -26 119 -1 61 0 116 2 123 4 10 50 13 210 13 177 0 205 -2 210 -16z" fill="#01c99c"/>
<path d="M195 588 c-27 -14 -45 -38 -45 -60 0 -28 14 -21 27 12 9 24 17 30 41 30 16 0 37 -9 47 -20 15 -17 16 -24 6 -46 -6 -14 -20 -28 -31 -31 -10 -3 -21 -12 -25 -20 -7 -19 3 -32 13 -17 4 5 19 17 34 26 14 10 29 27 33 38 10 30 -12 75 -41 89 -30 13 -34 13 -59 -1z" fill="#01c99c"/>
<path d="M215 390 c3 -5 8 -10 11 -10 2 0 4 5 4 10 0 6 -5 10 -11 10 -5 0 -7 -4 -4 -10z" fill="#01c99c"/>
<path d="M520 340 l-32 -40 -143 0 c-117 0 -146 -3 -159 -16 -13 -12 -16 -39 -16 -130 0 -64 5 -124 10 -135 10 -18 23 -19 223 -19 152 0 216 3 225 12 8 8 12 53 12 134 0 98 -3 126 -16 138 -8 9 -19 16 -24 16 -5 0 -10 17 -12 37 -4 53 -28 54 -68 3z m50 -23 c0 -24 6 -35 23 -42 21 -10 22 -15 22 -130 l0 -120 -204 -3 c-157 -2 -206 1 -213 10 -13 21 -10 222 4 236 8 8 57 12 154 12 l143 0 27 35 c33 44 44 44 44 2z" fill="#01c99c"/>
<path d="M379 249 c-15 -6 -33 -23 -39 -40 -11 -26 -10 -36 9 -73 11 -24 21 -48 21 -54 0 -13 28 -42 41 -42 6 0 17 17 25 37 8 21 21 50 29 65 18 31 19 57 2 79 -11 14 -51 40 -59 38 -2 0 -15 -5 -29 -10z m65 -35 c20 -20 20 -48 1 -64 -8 -7 -15 -19 -15 -26 0 -8 -10 -14 -22 -14 -16 0 -28 11 -40 36 -10 19 -18 39 -18 44 0 17 32 40 55 40 13 0 31 -7 39 -16z" fill="#01c99c"/>
<path d="M400 201 c0 -12 26 -32 33 -25 9 10 -4 34 -19 34 -8 0 -14 -4 -14 -9z" fill="#01c99c"/>
<path d="M280 220 c0 -5 7 -10 15 -10 8 0 15 5 15 10 0 6 -7 10 -15 10 -8 0 -15 -4 -15 -10z" fill="#01c99c"/>
<path d="M500 220 c0 -5 7 -10 15 -10 8 0 15 5 15 10 0 6 -7 10 -15 10 -8 0 -15 -4 -15 -10z" fill="#01c99c"/>
<path d="M270 180 c0 -5 9 -10 20 -10 11 0 20 5 20 10 0 6 -9 10 -20 10 -11 0 -20 -4 -20 -10z" fill="#01c99c"/>
<path d="M505 180 c3 -5 13 -10 21 -10 8 0 14 5 14 10 0 6 -9 10 -21 10 -11 0 -17 -4 -14 -10z" fill="#01c99c"/>
<path d="M280 140 c0 -5 7 -10 15 -10 8 0 15 5 15 10 0 6 -7 10 -15 10 -8 0 -15 -4 -15 -10z" fill="#01c99c"/>
<path d="M500 140 c0 -5 9 -10 21 -10 11 0 17 5 14 10 -3 6 -13 10 -21 10 -8 0 -14 -4 -14 -10z" fill="#01c99c"/>
</g>
</svg>