<svg xmlns="http://www.w3.org/2000/svg" version="1.0" width="64.000000pt" height="64.000000pt" viewBox="0 0 64.000000 64.000000" preserveAspectRatio="xMidYMid meet">

<g transform="translate(0.000000,64.000000) scale(0.100000,-0.100000)" fill="#f6ba18" stroke="none">
<path d="M84 575 c-3 -8 -1 -37 5 -65 6 -28 11 -109 11 -180 0 -127 -1 -131 -30 -178 -62 -100 -58 -102 246 -102 139 0 259 3 268 6 24 9 19 45 -13 96 -28 44 -30 53 -33 171 -1 69 -7 129 -11 133 -4 5 -47 11 -95 15 -117 10 -142 17 -177 50 -58 54 -159 86 -171 54z m69 -8 c26 -11 27 -13 13 -32 -15 -20 -15 -20 -16 3 0 15 -6 22 -20 22 -13 0 -20 -7 -20 -20 0 -14 7 -20 23 -20 18 0 19 -2 7 -10 -27 -17 -38 -11 -42 25 -6 50 3 55 55 32z m-13 -27 c0 -5 -4 -10 -10 -10 -5 0 -10 5 -10 10 0 6 5 10 10 10 6 0 10 -4 10 -10z m101 -27 c39 -36 79 -99 79 -126 0 -22 -58 -59 -81 -52 -32 11 -88 65 -109 106 l-19 37 27 18 c15 9 33 26 40 36 7 10 15 18 18 18 2 0 22 -17 45 -37z m106 -59 c14 -14 23 -28 20 -30 -7 -7 -49 15 -59 30 -23 34 5 34 39 0z m177 -81 c3 -42 6 -96 6 -120 l0 -43 -205 0 -205 0 0 64 c0 35 -3 85 -7 111 -4 35 -3 46 5 41 7 -4 12 -29 12 -55 0 -27 3 -69 6 -93 l6 -46 128 -7 c70 -4 153 -4 184 0 l56 7 0 93 c0 63 -4 96 -13 103 -7 6 -40 13 -72 15 -58 3 -57 3 16 5 l76 2 7 -77z m-138 17 c3 0 4 7 0 15 -4 12 5 15 49 15 l55 0 0 -37 c0 -21 3 -62 6 -90 l7 -53 -177 0 -176 0 0 53 c1 48 2 50 14 29 12 -22 63 -62 79 -62 4 0 1 14 -8 30 -14 27 -14 30 0 30 9 0 25 -5 36 -11 16 -8 26 -7 45 6 23 15 24 20 18 63 l-7 46 26 -17 c15 -9 29 -17 33 -17z m-239 -32 c-3 -7 -5 -2 -5 12 0 14 2 19 5 13 2 -7 2 -19 0 -25z m65 -43 c3 -14 3 -25 0 -25 -14 0 -42 35 -42 52 0 28 36 5 42 -27z m118 37 c0 -14 -36 -43 -43 -35 -4 3 0 15 10 25 17 19 33 24 33 10z m225 -199 c44 -65 34 -73 -85 -73 -60 0 -79 3 -84 15 -8 23 -144 21 -161 -2 -10 -14 -23 -15 -94 -7 l-82 9 30 48 31 47 209 0 210 0 26 -37z m-185 -63 c0 -6 -28 -10 -65 -10 -37 0 -65 4 -65 10 0 6 28 10 65 10 37 0 65 -4 65 -10z" fill="#f6ba18"/>
<path d="M423 373 c9 -2 25 -2 35 0 9 3 1 5 -18 5 -19 0 -27 -2 -17 -5z" fill="#f6ba18"/>
<path d="M430 330 c0 -5 9 -10 20 -10 11 0 20 5 20 10 0 6 -9 10 -20 10 -11 0 -20 -4 -20 -10z" fill="#f6ba18"/>
<path d="M355 320 c3 -5 13 -10 21 -10 8 0 12 5 9 10 -3 6 -13 10 -21 10 -8 0 -12 -4 -9 -10z" fill="#f6ba18"/>
<path d="M340 285 c7 -8 17 -15 22 -15 6 0 5 7 -2 15 -7 8 -17 15 -22 15 -6 0 -5 -7 2 -15z" fill="#f6ba18"/>
<path d="M310 275 c0 -8 4 -15 10 -15 5 0 7 7 4 15 -4 8 -8 15 -10 15 -2 0 -4 -7 -4 -15z" fill="#f6ba18"/>
<path d="M423 283 c9 -2 25 -2 35 0 9 3 1 5 -18 5 -19 0 -27 -2 -17 -5z" fill="#f6ba18"/>
<path d="M268 163 c7 -3 16 -2 19 1 4 3 -2 6 -13 5 -11 0 -14 -3 -6 -6z" fill="#f6ba18"/>
<path d="M440 130 c0 -5 5 -10 10 -10 6 0 10 5 10 10 0 6 -4 10 -10 10 -5 0 -10 -4 -10 -10z" fill="#f6ba18"/>
<path d="M512 500 c0 -14 2 -19 5 -12 2 6 2 18 0 25 -3 6 -5 1 -5 -13z" fill="#f6ba18"/>
<path d="M540 495 c-7 -9 -11 -18 -8 -20 3 -3 11 1 18 10 7 9 11 18 8 20 -3 3 -11 -1 -18 -10z" fill="#f6ba18"/>
<path d="M550 451 c0 -5 9 -7 20 -4 11 3 20 7 20 9 0 2 -9 4 -20 4 -11 0 -20 -4 -20 -9z" fill="#f6ba18"/>
</g>
</svg>