<svg xmlns="http://www.w3.org/2000/svg" version="1.0" width="64.000000pt" height="64.000000pt" viewBox="0 0 64.000000 64.000000" preserveAspectRatio="xMidYMid meet">

<g transform="translate(0.000000,64.000000) scale(0.100000,-0.100000)" fill="#76ce44" stroke="none">
<path d="M410 588 c-148 -75 -95 -298 70 -298 119 0 193 123 138 230 -25 48 -89 90 -138 90 -14 0 -46 -10 -70 -22z m144 -27 c62 -35 82 -125 41 -187 -35 -54 -116 -80 -168 -53 -116 60 -111 212 8 254 44 15 74 11 119 -14z" fill="#76ce44"/>
<path d="M490 550 c0 -5 -11 -10 -24 -10 -28 0 -72 -41 -78 -74 -5 -25 7 -66 19 -66 5 0 7 18 5 39 -3 30 1 44 17 60 22 22 51 28 51 11 0 -15 26 -12 40 5 10 12 10 18 0 30 -14 17 -30 20 -30 5z" fill="#76ce44"/>
<path d="M549 493 c-1 -4 0 -24 1 -43 1 -38 -17 -62 -57 -74 -18 -6 -22 -4 -17 8 7 19 -6 21 -30 3 -16 -11 -16 -17 -6 -34 13 -20 13 -20 61 3 26 13 53 32 59 43 13 25 13 88 0 96 -5 3 -10 3 -11 -2z" fill="#76ce44"/>
<path d="M46 468 c-13 -18 -16 -54 -16 -184 0 -135 -3 -163 -15 -168 -20 -7 -19 -50 1 -70 13 -14 53 -16 283 -16 247 0 269 1 284 18 21 23 22 58 2 69 -10 6 -15 31 -17 83 -2 41 -7 75 -13 75 -6 0 -11 -34 -13 -77 -4 -100 -22 -102 -22 -3 0 43 -4 75 -10 75 -6 0 -10 -31 -10 -74 l0 -74 -78 -6 c-97 -8 -147 -8 -244 0 l-78 6 0 154 0 154 100 0 c62 0 100 4 100 10 0 7 -40 10 -112 8 l-113 -3 -3 -162 c-1 -98 -6 -163 -12 -163 -14 0 -13 306 0 331 10 17 22 19 125 19 70 0 115 4 115 10 0 6 -46 10 -119 10 -113 0 -121 -1 -135 -22z m204 -383 c33 -19 71 -19 96 0 14 10 47 14 121 15 103 0 126 -8 103 -35 -18 -22 -522 -22 -540 0 -22 27 0 35 98 35 65 -1 105 -5 122 -15z" fill="#76ce44"/>
<path d="M120 396 c0 -9 5 -16 10 -16 6 0 10 4 10 9 0 6 -4 13 -10 16 -5 3 -10 -1 -10 -9z" fill="#76ce44"/>
<path d="M160 395 c0 -8 5 -15 10 -15 6 0 10 7 10 15 0 8 -4 15 -10 15 -5 0 -10 -7 -10 -15z" fill="#76ce44"/>
<path d="M205 401 c-3 -5 -1 -12 5 -16 5 -3 10 1 10 9 0 18 -6 21 -15 7z" fill="#76ce44"/>
<path d="M120 320 l0 -40 130 0 c80 0 130 4 130 10 0 6 -47 10 -120 10 -113 0 -120 1 -120 20 0 19 7 20 90 20 53 0 90 4 90 10 0 6 -40 10 -100 10 l-100 0 0 -40z" fill="#76ce44"/>
<path d="M127 254 c-4 -4 -7 -22 -7 -41 0 -31 2 -33 36 -33 35 0 35 1 32 38 -3 31 -7 37 -28 40 -14 2 -29 0 -33 -4z m43 -39 c0 -8 -7 -15 -15 -15 -8 0 -15 7 -15 15 0 8 7 15 15 15 8 0 15 -7 15 -15z" fill="#76ce44"/>
<path d="M214 246 c-3 -8 -4 -25 -2 -38 2 -19 9 -23 38 -23 33 0 35 2 35 35 0 32 -3 35 -33 38 -21 2 -34 -2 -38 -12z m56 -32 c0 -9 -7 -14 -17 -12 -25 5 -28 28 -4 28 12 0 21 -6 21 -16z" fill="#76ce44"/>
<path d="M317 254 c-4 -4 -7 -22 -7 -41 0 -31 2 -33 36 -33 35 0 35 1 32 38 -3 31 -7 37 -28 40 -14 2 -29 0 -33 -4z m43 -39 c0 -8 -7 -15 -15 -15 -8 0 -15 7 -15 15 0 8 7 15 15 15 8 0 15 -7 15 -15z" fill="#76ce44"/>
<path d="M417 254 c-4 -4 -7 -22 -7 -41 0 -31 2 -33 36 -33 35 0 35 1 32 38 -3 31 -7 37 -28 40 -14 2 -29 0 -33 -4z m43 -39 c0 -8 -7 -15 -15 -15 -8 0 -15 7 -15 15 0 8 7 15 15 15 8 0 15 -7 15 -15z" fill="#76ce44"/>
<path d="M120 150 c0 -5 16 -10 35 -10 19 0 35 5 35 10 0 6 -16 10 -35 10 -19 0 -35 -4 -35 -10z" fill="#76ce44"/>
<path d="M210 150 c0 -5 18 -10 40 -10 22 0 40 5 40 10 0 6 -18 10 -40 10 -22 0 -40 -4 -40 -10z" fill="#76ce44"/>
<path d="M310 150 c0 -5 16 -10 35 -10 19 0 35 5 35 10 0 6 -16 10 -35 10 -19 0 -35 -4 -35 -10z" fill="#76ce44"/>
<path d="M410 150 c0 -5 16 -10 35 -10 19 0 35 5 35 10 0 6 -16 10 -35 10 -19 0 -35 -4 -35 -10z" fill="#76ce44"/>
</g>
</svg>